<?xml version="1.0" encoding="UTF-8" standalone="no"?>
<!-- Created with Inkscape (http://www.inkscape.org/) -->

<svg
   version="1.1"
   id="svg2"
   width="1496"
   height="1496"
   viewBox="0 0 1496 1496"
   sodipodi:docname="2808108_18383.eps"
   xmlns:inkscape="http://www.inkscape.org/namespaces/inkscape"
   xmlns:sodipodi="http://sodipodi.sourceforge.net/DTD/sodipodi-0.dtd"
   xmlns="http://www.w3.org/2000/svg"
   xmlns:svg="http://www.w3.org/2000/svg">
  <defs
     id="defs6" />
  <sodipodi:namedview
     id="namedview4"
     pagecolor="#ffffff"
     bordercolor="#000000"
     borderopacity="0.25"
     inkscape:showpageshadow="2"
     inkscape:pageopacity="0.0"
     inkscape:pagecheckerboard="0"
     inkscape:deskcolor="#d1d1d1" />
  <g
     id="g8"
     inkscape:groupmode="layer"
     inkscape:label="ink_ext_XXXXXX"
     transform="matrix(1.3333333,0,0,-1.3333333,0,1496)">
    <g
       id="g10"
       transform="scale(0.1)">
      <path
         d="M 11220,0 H 0 V 11220 H 11220 V 0"
         style="fill:#ffffff;fill-opacity:1;fill-rule:nonzero;stroke:none"
         id="path12" />
      <path
         d="m 8291.36,9076.32 h -933.78 v 40.51 h 933.78 v -40.51"
         style="fill:#cdcdcd;fill-opacity:1;fill-rule:nonzero;stroke:none"
         id="path14" />
      <path
         d="M 5070.74,4395.86 H 4051.82 v 56.99 h 1018.92 v -56.99"
         style="fill:#60a4c2;fill-opacity:1;fill-rule:nonzero;stroke:none"
         id="path16" />
      <path
         d="M 4507.85,4737.9 H 2985.3 l -381.04,341.55 38.04,42.43 364.81,-326.99 h 1500.74 v -56.99"
         style="fill:#9900a6;fill-opacity:1;fill-rule:nonzero;stroke:none"
         id="path18" />
      <path
         d="m 4675.5,6356.19 -2015.91,1581.99 35.19,44.83 2015.9,-1581.99 -35.18,-44.83"
         style="fill:#eebd3a;fill-opacity:1;fill-rule:nonzero;stroke:none"
         id="path20" />
      <path
         d="m 4743.72,6093.03 -1732.05,1349.05 17.52,22.5 1732.05,-1349.05 -17.52,-22.5"
         style="fill:#cacaca;fill-opacity:1;fill-rule:nonzero;stroke:none"
         id="path22" />
      <path
         d="m 6553.75,6541.12 -20.91,19.36 236.09,254.79 v 513.68 h 28.5 v -524.86 l -243.68,-262.97"
         style="fill:#c84b2a;fill-opacity:1;fill-rule:nonzero;stroke:none"
         id="path24" />
      <path
         d="m 6590.42,6362.83 -41.89,38.64 334.43,362.34 v 1599.18 h -136.63 v 57 h 193.65 V 6741.51 l -349.56,-378.68"
         style="fill:#cdcdcd;fill-opacity:1;fill-rule:nonzero;stroke:none"
         id="path26" />
      <path
         d="m 7837.13,5783.62 h -947.66 v 57 h 947.66 v -57"
         style="fill:#cdcdcd;fill-opacity:1;fill-rule:nonzero;stroke:none"
         id="path28" />
      <path
         d="M 8592.41,5612.65 H 7031.96 v 56.99 h 1560.45 v -56.99"
         style="fill:#cdcdcd;fill-opacity:1;fill-rule:nonzero;stroke:none"
         id="path30" />
      <path
         d="m 7920.85,5887.17 c -37.44,0 -67.9,-30.45 -67.9,-67.89 0,-37.44 30.46,-67.92 67.9,-67.92 37.45,0 67.91,30.48 67.91,67.92 0,37.44 -30.46,67.89 -67.91,67.89 z m 0,-188.82 c -66.67,0 -120.91,54.26 -120.91,120.93 0,66.66 54.24,120.9 120.91,120.9 66.67,0 120.91,-54.24 120.91,-120.9 0,-66.67 -54.24,-120.93 -120.91,-120.93"
         style="fill:#cdcdcd;fill-opacity:1;fill-rule:nonzero;stroke:none"
         id="path32" />
      <path
         d="m 10263.3,5844.37 c -37.5,0 -67.9,-30.47 -67.9,-67.92 0,-37.44 30.4,-67.9 67.9,-67.9 37.4,0 67.9,30.46 67.9,67.9 0,37.45 -30.5,67.92 -67.9,67.92 z m 0,-188.82 c -66.7,0 -120.9,54.24 -120.9,120.9 0,66.67 54.2,120.92 120.9,120.92 66.7,0 120.9,-54.25 120.9,-120.92 0,-66.66 -54.2,-120.9 -120.9,-120.9"
         style="fill:#cdcdcd;fill-opacity:1;fill-rule:nonzero;stroke:none"
         id="path34" />
      <path
         d="m 3261.65,2580.45 c -37.44,0 -67.9,-30.45 -67.9,-67.9 0,-37.45 30.46,-67.91 67.9,-67.91 37.45,0 67.91,30.46 67.91,67.91 0,37.45 -30.46,67.9 -67.91,67.9 z m 0,-188.81 c -66.66,0 -120.91,54.24 -120.91,120.91 0,66.67 54.25,120.91 120.91,120.91 66.67,0 120.92,-54.24 120.92,-120.91 0,-66.67 -54.25,-120.91 -120.92,-120.91"
         style="fill:#cdcdcd;fill-opacity:1;fill-rule:nonzero;stroke:none"
         id="path36" />
      <path
         d="m 5356.48,1212.4 c -37.44,0 -67.9,-30.5 -67.9,-67.9 0,-37.5 30.46,-67.9 67.9,-67.9 37.45,0 67.91,30.4 67.91,67.9 0,37.4 -30.46,67.9 -67.91,67.9 z m 0,-188.8 c -66.67,0 -120.91,54.2 -120.91,120.9 0,66.7 54.24,120.91 120.91,120.91 66.67,0 120.91,-54.21 120.91,-120.91 0,-66.7 -54.24,-120.9 -120.91,-120.9"
         style="fill:#cdcdcd;fill-opacity:1;fill-rule:nonzero;stroke:none"
         id="path38" />
      <path
         d="m 7236.83,9825.09 c -37.45,0 -67.92,-30.46 -67.92,-67.91 0,-37.45 30.47,-67.92 67.92,-67.92 37.44,0 67.9,30.47 67.9,67.92 0,37.45 -30.46,67.91 -67.9,67.91 z m 0,-188.84 c -66.68,0 -120.93,54.26 -120.93,120.93 0,66.67 54.25,120.92 120.93,120.92 66.67,0 120.91,-54.25 120.91,-120.92 0,-66.67 -54.24,-120.93 -120.91,-120.93"
         style="fill:#cdcdcd;fill-opacity:1;fill-rule:nonzero;stroke:none"
         id="path40" />
      <path
         d="m 2619.64,8081.76 c -37.44,0 -67.91,-30.45 -67.91,-67.9 0,-37.45 30.47,-67.91 67.91,-67.91 37.44,0 67.9,30.46 67.9,67.91 0,37.45 -30.46,67.9 -67.9,67.9 z m 0,-188.82 c -66.67,0 -120.91,54.25 -120.91,120.92 0,66.67 54.24,120.91 120.91,120.91 66.67,0 120.91,-54.24 120.91,-120.91 0,-66.67 -54.24,-120.92 -120.91,-120.92"
         style="fill:#eebd3a;fill-opacity:1;fill-rule:nonzero;stroke:none"
         id="path42" />
      <path
         d="m 3417.67,5792.76 c -37.44,0 -67.9,-30.46 -67.9,-67.91 0,-37.45 30.46,-67.9 67.9,-67.9 37.44,0 67.91,30.45 67.91,67.9 0,37.45 -30.47,67.91 -67.91,67.91 z m 0,-188.81 c -66.67,0 -120.91,54.23 -120.91,120.9 0,66.67 54.24,120.92 120.91,120.92 66.67,0 120.91,-54.25 120.91,-120.92 0,-66.67 -54.24,-120.9 -120.91,-120.9"
         style="fill:#cdcdcd;fill-opacity:1;fill-rule:nonzero;stroke:none"
         id="path44" />
      <path
         d="m 4406.31,3621.33 c -37.45,0 -67.92,-30.46 -67.92,-67.9 0,-37.45 30.47,-67.91 67.92,-67.91 37.44,0 67.89,30.46 67.89,67.91 0,37.44 -30.45,67.9 -67.89,67.9 z m 0,-188.82 c -66.68,0 -120.92,54.24 -120.92,120.92 0,66.67 54.24,120.91 120.92,120.91 66.66,0 120.9,-54.24 120.9,-120.91 0,-66.68 -54.24,-120.92 -120.9,-120.92"
         style="fill:#cdcdcd;fill-opacity:1;fill-rule:nonzero;stroke:none"
         id="path46" />
      <path
         d="m 7564.58,3692.58 c -37.44,0 -67.91,-30.46 -67.91,-67.9 0,-37.45 30.47,-67.91 67.91,-67.91 37.44,0 67.91,30.46 67.91,67.91 0,37.44 -30.47,67.9 -67.91,67.9 z m 0,-188.82 c -66.67,0 -120.91,54.24 -120.91,120.92 0,66.67 54.24,120.91 120.91,120.91 66.67,0 120.91,-54.24 120.91,-120.91 0,-66.68 -54.24,-120.92 -120.91,-120.92"
         style="fill:#cdcdcd;fill-opacity:1;fill-rule:nonzero;stroke:none"
         id="path48" />
      <path
         d="m 4406.31,9877.33 c -37.45,0 -67.92,-30.47 -67.92,-67.93 0,-37.43 30.47,-67.88 67.92,-67.88 37.44,0 67.89,30.45 67.89,67.88 0,37.46 -30.45,67.93 -67.89,67.93 z m 0,-188.81 c -66.68,0 -120.92,54.23 -120.92,120.88 0,66.68 54.24,120.94 120.92,120.94 66.66,0 120.9,-54.26 120.9,-120.94 0,-66.65 -54.24,-120.88 -120.9,-120.88"
         style="fill:#cdcdcd;fill-opacity:1;fill-rule:nonzero;stroke:none"
         id="path50" />
      <path
         d="M 8429.13,5011.7 H 7013.56 v 28.51 h 1415.57 v -28.51"
         style="fill:#60a4c2;fill-opacity:1;fill-rule:nonzero;stroke:none"
         id="path52" />
      <path
         d="M 8248.61,5121.01 H 7065.82 V 5178 h 1182.79 v -56.99"
         style="fill:#eebd3a;fill-opacity:1;fill-rule:nonzero;stroke:none"
         id="path54" />
      <path
         d="m 5075.59,5783.62 h -947.67 v 28.52 h 947.67 v -28.52"
         style="fill:#cdcdcd;fill-opacity:1;fill-rule:nonzero;stroke:none"
         id="path56" />
      <path
         d="m 5047.08,5512.86 h -947.66 v 28.52 h 947.66 v -28.52"
         style="fill:#cdcdcd;fill-opacity:1;fill-rule:nonzero;stroke:none"
         id="path58" />
      <path
         d="M 4797.5,5320.57 H 3659.74 v 28.51 H 4797.5 v -28.51"
         style="fill:#cdcdcd;fill-opacity:1;fill-rule:nonzero;stroke:none"
         id="path60" />
      <path
         d="m 1803.77,7013.08 -357.3,342.7 v 235.28 h 53.01 v -212.68 l 340.98,-327.06 -36.69,-38.24"
         style="fill:#cdcdcd;fill-opacity:1;fill-rule:nonzero;stroke:none"
         id="path62" />
      <path
         d="m 6777.37,6381.8 -41.81,38.75 926.43,999.52 h 1009.39 v -56.99 h -984.5 L 6777.37,6381.8"
         style="fill:#cdcdcd;fill-opacity:1;fill-rule:nonzero;stroke:none"
         id="path64" />
      <path
         d="m 6435.36,5707.28 -41.81,38.75 926.44,999.52 h 391.84 v -57 h -366.97 l -909.5,-981.27"
         style="fill:#cdcdcd;fill-opacity:1;fill-rule:nonzero;stroke:none"
         id="path66" />
      <path
         d="m 6785.91,6258.47 -20.89,19.36 922.19,994.99 h 1003.16 v -28.5 h -990.71 l -913.75,-985.85"
         style="fill:#cdcdcd;fill-opacity:1;fill-rule:nonzero;stroke:none"
         id="path68" />
      <path
         d="m 4505.56,5595.63 h -610.49 v 53.01 h 610.49 v -53.01"
         style="fill:#cdcdcd;fill-opacity:1;fill-rule:nonzero;stroke:none"
         id="path70" />
      <path
         d="M 4400.96,5161.05 H 3353.55 v 53.01 h 1047.41 v -53.01"
         style="fill:#cdcdcd;fill-opacity:1;fill-rule:nonzero;stroke:none"
         id="path72" />
      <path
         d="m 4427.47,8811.87 h -53.01 v 926.28 h 53.01 v -926.28"
         style="fill:#cdcdcd;fill-opacity:1;fill-rule:nonzero;stroke:none"
         id="path74" />
      <path
         d="M 9823.29,2686.13 H 9005.1 l -1054.18,688.34 28.98,44.4 1040.97,-679.74 h 802.42 v -53"
         style="fill:#a9c732;fill-opacity:1;fill-rule:nonzero;stroke:none"
         id="path76" />
      <path
         d="m 4537.91,8669.37 h -53.01 v 689.91 l 406.35,425.69 38.34,-36.59 -391.68,-410.35 v -668.66"
         style="fill:#cdcdcd;fill-opacity:1;fill-rule:nonzero;stroke:none"
         id="path78" />
      <path
         d="m 2576.88,3904.93 h -698.26 v 28.51 h 698.26 v -28.51"
         style="fill:#cdcdcd;fill-opacity:1;fill-rule:nonzero;stroke:none"
         id="path80" />
      <path
         d="m 6111.67,1942.9 -41.22,39.39 314.77,329.43 h 667.65 v -56.99 H 6409.6 L 6111.67,1942.9"
         style="fill:#cdcdcd;fill-opacity:1;fill-rule:nonzero;stroke:none"
         id="path82" />
      <path
         d="m 7081.38,2425.7 h -505.9 v 28.52 h 505.9 v -28.52"
         style="fill:#cacaca;fill-opacity:1;fill-rule:nonzero;stroke:none"
         id="path84" />
      <path
         d="m 4602.27,2751.83 h -57.01 v 1574.65 h 413.24 v -56.99 H 4602.27 V 2751.83"
         style="fill:#cdcdcd;fill-opacity:1;fill-rule:nonzero;stroke:none"
         id="path86" />
      <path
         d="m 4431.25,2680.58 h -57.01 v 783.78 h 57.01 v -783.78"
         style="fill:#cdcdcd;fill-opacity:1;fill-rule:nonzero;stroke:none"
         id="path88" />
      <path
         d="m 4618.87,1369.51 h -57 v 843.76 h 57 v -843.76"
         style="fill:#cdcdcd;fill-opacity:1;fill-rule:nonzero;stroke:none"
         id="path90" />
      <path
         d="m 7579.79,4054.74 -1127.32,734.19 15.56,23.88 1127.32,-734.19 -15.56,-23.88"
         style="fill:#cdcdcd;fill-opacity:1;fill-rule:nonzero;stroke:none"
         id="path92" />
      <path
         d="m 6118.63,3007.16 h -28.5 v 1097.29 h 28.5 V 3007.16"
         style="fill:#cacaca;fill-opacity:1;fill-rule:nonzero;stroke:none"
         id="path94" />
      <path
         d="m 5999.88,3425.17 h -57 v 684.01 h 57 v -684.01"
         style="fill:#cdcdcd;fill-opacity:1;fill-rule:nonzero;stroke:none"
         id="path96" />
      <path
         d="M 4765.04,6457.65 2868.4,7949.92 v 1056.72 h 28.5 V 7963.77 l 1885.76,-1483.73 -17.62,-22.39"
         style="fill:#eebd3a;fill-opacity:1;fill-rule:nonzero;stroke:none"
         id="path98" />
      <path
         d="m 5298.75,6460.53 h -57.01 v 1040.3 h 57.01 v -1040.3"
         style="fill:#cdcdcd;fill-opacity:1;fill-rule:nonzero;stroke:none"
         id="path100" />
      <path
         d="m 3333.46,6553.64 h -619.65 l -1015.12,858.93 36.82,43.51 999.18,-845.45 h 598.77 v -56.99"
         style="fill:#cdcdcd;fill-opacity:1;fill-rule:nonzero;stroke:none"
         id="path102" />
      <path
         d="m 9113.15,6867.17 h -378.47 l -1015.13,858.89 36.83,43.52 999.18,-845.42 h 357.59 v -56.99"
         style="fill:#cdcdcd;fill-opacity:1;fill-rule:nonzero;stroke:none"
         id="path104" />
      <path
         d="m 9404.23,6981.15 h -614.45 l -3.98,3.38 -1007.15,852.18 18.41,21.76 1003.16,-848.8 h 604.01 v -28.52"
         style="fill:#cdcdcd;fill-opacity:1;fill-rule:nonzero;stroke:none"
         id="path106" />
      <path
         d="m 8833.31,7070.02 -1007.16,852.2 18.41,21.75 1007.16,-852.19 -18.41,-21.76"
         style="fill:#cdcdcd;fill-opacity:1;fill-rule:nonzero;stroke:none"
         id="path108" />
      <path
         d="m 9588.16,2828.64 h -525.45 v 53.01 h 525.45 v -53.01"
         style="fill:#cdcdcd;fill-opacity:1;fill-rule:nonzero;stroke:none"
         id="path110" />
      <path
         d="m 5962.71,6756.71 h -57.01 v 2714.73 h 57.01 V 6756.71"
         style="fill:#cdcdcd;fill-opacity:1;fill-rule:nonzero;stroke:none"
         id="path112" />
      <path
         d="m 5037.48,6346.54 h -28.5 v 812.28 h 28.5 v -812.28"
         style="fill:#cacaca;fill-opacity:1;fill-rule:nonzero;stroke:none"
         id="path114" />
      <path
         d="m 5140,6346.54 h -53.01 v 634.14 H 5140 v -634.14"
         style="fill:#cdcdcd;fill-opacity:1;fill-rule:nonzero;stroke:none"
         id="path116" />
      <path
         d="m 7899.22,8985.21 h -548.39 v 20.23 h 548.39 v -20.23"
         style="fill:#cdcdcd;fill-opacity:1;fill-rule:nonzero;stroke:none"
         id="path118" />
      <path
         d="M 2111.37,5453.49 H 1341.85 V 5482 h 769.52 v -28.51"
         style="fill:#cdcdcd;fill-opacity:1;fill-rule:nonzero;stroke:none"
         id="path120" />
      <path
         d="m 2861.88,6409.45 c 1.05,-38.63 -29.41,-70.78 -68.04,-71.84 -38.63,-1.05 -70.79,29.44 -71.83,68.05 -1.04,38.64 29.43,70.79 68.05,71.83 38.62,1.05 70.78,-29.41 71.82,-68.04"
         style="fill:#cdcdcd;fill-opacity:1;fill-rule:nonzero;stroke:none"
         id="path122" />
      <path
         d="m 2747.48,6424.87 -477.39,377.64 17.68,22.36 477.39,-377.63 -17.68,-22.37"
         style="fill:#cdcdcd;fill-opacity:1;fill-rule:nonzero;stroke:none"
         id="path124" />
      <path
         d="m 3328.44,5761.53 -1152.99,937.43 35.96,44.22 1152.99,-937.43 -35.96,-44.22"
         style="fill:#cdcdcd;fill-opacity:1;fill-rule:nonzero;stroke:none"
         id="path126" />
      <path
         d="m 1589.56,7591.06 c 0,-60 -48.65,-108.64 -108.66,-108.64 -60.02,0 -108.66,48.64 -108.66,108.64 0,60.02 48.64,108.66 108.66,108.66 60.01,0 108.66,-48.64 108.66,-108.66"
         style="fill:#828282;fill-opacity:1;fill-rule:nonzero;stroke:none"
         id="path128" />
      <path
         d="m 4149.27,4416.23 c 0,-61.68 -49.98,-111.66 -111.64,-111.66 -61.66,0 -111.63,49.98 -111.63,111.66 0,61.65 49.97,111.63 111.63,111.63 61.66,0 111.64,-49.98 111.64,-111.63"
         style="fill:#60a4c2;fill-opacity:1;fill-rule:nonzero;stroke:none"
         id="path130" />
      <path
         d="m 6697.39,8399.97 c 0,-55.62 -45.09,-100.71 -100.71,-100.71 -55.62,0 -100.7,45.09 -100.7,100.71 0,55.59 45.08,100.71 100.7,100.71 55.62,0 100.71,-45.12 100.71,-100.71"
         style="fill:#bdc2c5;fill-opacity:1;fill-rule:nonzero;stroke:none"
         id="path132" />
      <path
         d="m 6596.68,8527.01 c -70.06,0 -127.06,-56.99 -127.06,-127.04 0,-70.09 57,-127.06 127.06,-127.06 70.07,0 127.06,56.97 127.06,127.06 0,70.05 -56.99,127.04 -127.06,127.04 z m 0,-276.69 c -82.51,0 -149.64,67.13 -149.64,149.65 0,82.52 67.13,149.65 149.64,149.65 82.52,0 149.65,-67.13 149.65,-149.65 0,-82.52 -67.13,-149.65 -149.65,-149.65"
         style="fill:#bdc2c5;fill-opacity:1;fill-rule:nonzero;stroke:none"
         id="path134" />
      <path
         d="m 6694.47,3061.94 c 0,-55.61 -45.09,-100.71 -100.71,-100.71 -55.62,0 -100.71,45.1 -100.71,100.71 0,55.62 45.09,100.71 100.71,100.71 55.62,0 100.71,-45.09 100.71,-100.71"
         style="fill:#bdc2c5;fill-opacity:1;fill-rule:nonzero;stroke:none"
         id="path136" />
      <path
         d="m 6593.76,3189 c -70.06,0 -127.05,-57.01 -127.05,-127.06 0,-70.06 56.99,-127.05 127.05,-127.05 70.07,0 127.06,56.99 127.06,127.05 0,70.05 -56.99,127.06 -127.06,127.06 z m 0,-276.71 c -82.51,0 -149.64,67.13 -149.64,149.65 0,82.51 67.13,149.64 149.64,149.64 82.52,0 149.64,-67.13 149.64,-149.64 0,-82.52 -67.12,-149.65 -149.64,-149.65"
         style="fill:#bdc2c5;fill-opacity:1;fill-rule:nonzero;stroke:none"
         id="path138" />
      <path
         d="m 2620.6,5206.47 c 0,-55.6 -45.09,-100.7 -100.72,-100.7 -55.62,0 -100.7,45.1 -100.7,100.7 0,55.63 45.08,100.72 100.7,100.72 55.63,0 100.72,-45.09 100.72,-100.72"
         style="fill:#9900a6;fill-opacity:1;fill-rule:nonzero;stroke:none"
         id="path140" />
      <path
         d="m 2519.88,5333.54 c -70.05,0 -127.06,-57 -127.06,-127.07 0,-70.04 57.01,-127.06 127.06,-127.06 70.07,0 127.06,57.02 127.06,127.06 0,70.07 -56.99,127.07 -127.06,127.07 z m 0,-276.68 c -82.52,0 -149.64,67.1 -149.64,149.61 0,82.54 67.12,149.67 149.64,149.67 82.52,0 149.65,-67.13 149.65,-149.67 0,-82.51 -67.13,-149.61 -149.65,-149.61"
         style="fill:#9900a6;fill-opacity:1;fill-rule:nonzero;stroke:none"
         id="path142" />
      <path
         d="m 4853.08,6527.59 -1877.75,1469.26 -1.8,1247.22 128.25,0.17 1.71,-1184.83 1828.63,-1430.81 -79.04,-101.01"
         style="fill:#979797;fill-opacity:1;fill-rule:nonzero;stroke:none"
         id="path144" />
      <path
         d="m 6217.91,6738.42 h -128.26 v 795.65 c 0,216.11 175.81,391.9 391.9,391.9 h 137.75 v -128.25 h -137.75 c -145.37,0 -263.64,-118.28 -263.64,-263.65 v -795.65"
         style="fill:#979797;fill-opacity:1;fill-rule:nonzero;stroke:none"
         id="path146" />
      <path
         d="m 7514.77,5983.16 h -555.83 v 128.25 h 555.83 v -128.25"
         style="fill:#979797;fill-opacity:1;fill-rule:nonzero;stroke:none"
         id="path148" />
      <path
         d="m 7806.85,5983.16 h -349.07 v 128.25 h 349.07 c 145.37,0 263.63,118.28 263.63,263.65 v 436.99 h 128.26 v -436.99 c 0,-216.1 -175.8,-391.9 -391.89,-391.9"
         style="fill:#979797;fill-opacity:1;fill-rule:nonzero;stroke:none"
         id="path150" />
      <path
         d="m 5820.19,6838.16 h -128.26 v 837.88 h 128.26 v -837.88"
         style="fill:#979797;fill-opacity:1;fill-rule:nonzero;stroke:none"
         id="path152" />
      <path
         d="m 5820.19,7619.04 h -128.26 v 790.89 c 0,145.37 -118.26,263.63 -263.63,263.63 h -129.55 v 128.25 h 129.55 c 216.09,0 391.89,-175.79 391.89,-391.88 v -790.89"
         style="fill:#979797;fill-opacity:1;fill-rule:nonzero;stroke:none"
         id="path154" />
      <path
         d="m 4625.41,4548.61 h -400.09 v 128.25 h 400.09 v -128.25"
         style="fill:#979797;fill-opacity:1;fill-rule:nonzero;stroke:none"
         id="path156" />
      <path
         d="M 3584.05,4142.46 H 3455.8 v 142.5 c 0,216.09 175.8,391.9 391.89,391.9 h 434.62 v -128.25 h -434.62 c -145.38,0 -263.64,-118.28 -263.64,-263.65 v -142.5"
         style="fill:#979797;fill-opacity:1;fill-rule:nonzero;stroke:none"
         id="path158" />
      <path
         d="m 3192.18,3608.06 h -52.23 v 128.24 h 52.23 c 145.37,0 263.64,118.26 263.64,263.63 v 301.62 h 128.26 v -301.62 c 0,-216.08 -175.81,-391.87 -391.9,-391.87"
         style="fill:#979797;fill-opacity:1;fill-rule:nonzero;stroke:none"
         id="path160" />
      <path
         d="m 4826.02,3141.35 h -128.26 c 0,216.08 175.8,391.87 391.89,391.87 h 196.2 v -128.24 h -196.2 c -145.37,0 -263.63,-118.26 -263.63,-263.63"
         style="fill:#979797;fill-opacity:1;fill-rule:nonzero;stroke:none"
         id="path162" />
      <path
         d="m 5343.34,3405.03 h -190.91 v 128.24 h 190.91 c 145.37,0 263.63,118.26 263.63,263.63 v 321.79 h 128.26 V 3796.9 c 0,-216.08 -175.8,-391.87 -391.89,-391.87"
         style="fill:#979797;fill-opacity:1;fill-rule:nonzero;stroke:none"
         id="path164" />
      <path
         d="m 6818.81,7866.59 c 0,-91.8 -74.44,-166.27 -166.26,-166.27 -91.82,0 -166.26,74.47 -166.26,166.27 0,91.83 74.44,166.27 166.26,166.27 91.82,0 166.26,-74.44 166.26,-166.27"
         style="fill:#979797;fill-opacity:1;fill-rule:nonzero;stroke:none"
         id="path166" />
      <path
         d="m 7535.51,4843.95 238.48,-1.69 -179.36,-229.38 z"
         style="fill:#979797;fill-opacity:1;fill-rule:nonzero;stroke:none"
         id="path168" />
      <path
         d="m 8853.31,3559.63 -238.49,-0.31 177.46,230.87 z"
         style="fill:#505050;fill-opacity:1;fill-rule:nonzero;stroke:none"
         id="path170" />
      <path
         d="m 7293.98,4536.09 -178.11,118.2 70.91,106.85 178.11,-118.19 z m 356.22,-236.38 -178.12,118.19 70.92,106.86 178.11,-118.2 z m 356.2,-236.41 -178.1,118.21 70.92,106.86 178.11,-118.2 z m 356.23,-236.38 -178.11,118.2 70.91,106.85 178.1,-118.19 z m 349.47,-231.91 -171.36,113.72 70.91,106.86 171.36,-113.72 -70.91,-106.86"
         style="fill:#505050;fill-opacity:1;fill-rule:nonzero;stroke:none"
         id="path172" />
      <path
         d="M 9104,3713.62 7581.77,4715.94 7652.3,4823.07 9174.54,3820.75 9104,3713.62"
         style="fill:#979797;fill-opacity:1;fill-rule:nonzero;stroke:none"
         id="path174" />
      <path
         d="m 3018.95,5465.34 h -128.27 v 213.75 h 128.27 z m -52.97,-451.86 c -49.26,67.39 -75.3,147.27 -75.3,230.99 v 7.11 h 128.27 v -7.11 c 0,-56.34 17.49,-110.04 50.58,-155.32 z m 435.71,-160.9 h -119.11 c -37.92,0 -75.45,5.42 -111.55,16.11 l 36.46,122.97 c 24.25,-7.19 49.52,-10.84 75.09,-10.84 h 119.11 z m 427.51,0 h -213.75 v 128.24 h 213.75 z m 427.52,0 h -213.76 v 128.24 h 213.76 v -128.24"
         style="fill:#505050;fill-opacity:1;fill-rule:nonzero;stroke:none"
         id="path176" />
      <path
         d="m 1289.44,5997.56 h -61.76 c -216.09,0 -391.887,175.79 -391.887,391.87 v 171 h 128.262 v -171 c 0,-145.37 118.255,-263.63 263.625,-263.63 h 61.76 v -128.24"
         style="fill:#505050;fill-opacity:1;fill-rule:nonzero;stroke:none"
         id="path178" />
      <path
         d="m 1289.44,5997.56 h -61.76 c -216.09,0 -391.887,175.79 -391.887,391.87 v 171 h 128.262 v -171 c 0,-145.37 118.255,-263.63 263.625,-263.63 h 61.76 v -128.24"
         style="fill:#505050;fill-opacity:1;fill-rule:nonzero;stroke:none"
         id="path180" />
      <path
         d="M 964.055,6547.22 H 835.793 v 61.75 c 0,216.09 175.797,391.88 391.887,391.88 h 42.74 v -128.24 h -42.74 c -145.37,0 -263.625,-118.26 -263.625,-263.64 v -61.75"
         style="fill:#505050;fill-opacity:1;fill-rule:nonzero;stroke:none"
         id="path182" />
      <path
         d="M 964.055,6547.22 H 835.793 v 61.75 c 0,216.09 175.797,391.88 391.887,391.88 h 42.74 v -128.24 h -42.74 c -145.37,0 -263.625,-118.26 -263.625,-263.64 v -61.75"
         style="fill:#505050;fill-opacity:1;fill-rule:nonzero;stroke:none"
         id="path184" />
      <path
         d="M 1480.49,6938.74 1236.12,6750.39 V 7127.1 Z"
         style="fill:#505050;fill-opacity:1;fill-rule:nonzero;stroke:none"
         id="path186" />
      <path
         d="M 3018.66,5672 H 2890.4 v 61.76 c 0,145.37 -118.27,263.63 -263.64,263.63 H 1271.59 v 128.24 h 1355.17 c 216.09,0 391.9,-175.8 391.9,-391.87 V 5672"
         style="fill:#505050;fill-opacity:1;fill-rule:nonzero;stroke:none"
         id="path188" />
      <path
         d="M 8355.5,5370.4 H 7072.94 v 128.24 H 8355.5 V 5370.4"
         style="fill:#979797;fill-opacity:1;fill-rule:nonzero;stroke:none"
         id="path190" />
      <path
         d="m 7974.81,3278.5 c -60.01,0 -108.65,48.64 -108.65,108.66 0,60 48.64,108.65 108.65,108.65 60.01,0 108.66,-48.65 108.66,-108.65 0,-60.02 -48.65,-108.66 -108.66,-108.66"
         style="fill:#a9c732;fill-opacity:1;fill-rule:nonzero;stroke:none"
         id="path192" />
      <path
         d="m 3826.09,5525.33 c -60.01,0 -108.66,48.66 -108.66,108.66 0,60.02 48.65,108.67 108.66,108.67 60.01,0 108.67,-48.65 108.67,-108.67 0,-60 -48.66,-108.66 -108.67,-108.66"
         style="fill:#cdcdcd;fill-opacity:1;fill-rule:nonzero;stroke:none"
         id="path194" />
      <path
         d="m 6620.26,3211.58 h -53 v 865.49 l -454.7,298.54 29.09,44.28 478.61,-314.21 v -894.1"
         style="fill:#cdcdcd;fill-opacity:1;fill-rule:nonzero;stroke:none"
         id="path196" />
      <path
         d="m 7480.53,3663.13 -1161.42,769.55 29.27,44.19 1161.42,-769.55 -29.27,-44.19"
         style="fill:#cdcdcd;fill-opacity:1;fill-rule:nonzero;stroke:none"
         id="path198" />
      <path
         d="m 8348.37,1982.52 c -37.44,0 -67.91,-30.46 -67.91,-67.91 0,-37.45 30.47,-67.9 67.91,-67.9 37.44,0 67.9,30.45 67.9,67.9 0,37.45 -30.46,67.91 -67.9,67.91 z m 0,-188.82 c -66.68,0 -120.92,54.24 -120.92,120.91 0,66.67 54.24,120.91 120.92,120.91 66.67,0 120.91,-54.24 120.91,-120.91 0,-66.67 -54.24,-120.91 -120.91,-120.91"
         style="fill:#cdcdcd;fill-opacity:1;fill-rule:nonzero;stroke:none"
         id="path200" />
      <path
         d="m 8264,1953.27 -292.13,199.51 29.89,43.79 292.14,-199.51 -29.9,-43.79"
         style="fill:#cdcdcd;fill-opacity:1;fill-rule:nonzero;stroke:none"
         id="path202" />
      <path
         d="m 5100.18,9866.44 c 0,-55.65 -45.08,-100.72 -100.69,-100.72 -55.62,0 -100.71,45.07 -100.71,100.72 0,55.6 45.09,100.69 100.71,100.69 55.61,0 100.69,-45.09 100.69,-100.69"
         style="fill:#a9c732;fill-opacity:1;fill-rule:nonzero;stroke:none"
         id="path204" />
      <path
         d="m 4999.49,9993.48 c -70.07,0 -127.06,-57.02 -127.06,-127.04 0,-70.07 56.99,-127.08 127.06,-127.08 70.05,0 127.04,57.01 127.04,127.08 0,70.02 -56.99,127.04 -127.04,127.04 z m 0,-276.7 c -82.52,0 -149.65,67.13 -149.65,149.66 0,82.5 67.13,149.66 149.65,149.66 82.51,0 149.65,-67.16 149.65,-149.66 0,-82.53 -67.14,-149.66 -149.65,-149.66"
         style="fill:#a9c732;fill-opacity:1;fill-rule:nonzero;stroke:none"
         id="path206" />
      <path
         d="m 6088.23,1852.85 c 0,-55.62 -45.09,-100.7 -100.71,-100.7 -55.62,0 -100.7,45.08 -100.7,100.7 0,55.62 45.08,100.71 100.7,100.71 55.62,0 100.71,-45.09 100.71,-100.71"
         style="fill:#bdc2c5;fill-opacity:1;fill-rule:nonzero;stroke:none"
         id="path208" />
      <path
         d="m 5987.53,1979.91 c -70.07,0 -127.06,-56.99 -127.06,-127.06 0,-70.05 56.99,-127.06 127.06,-127.06 70.04,0 127.04,57.01 127.04,127.06 0,70.07 -57,127.06 -127.04,127.06 z m 0,-276.7 c -82.52,0 -149.64,67.12 -149.64,149.64 0,82.52 67.12,149.65 149.64,149.65 82.51,0 149.63,-67.13 149.63,-149.65 0,-82.52 -67.12,-149.64 -149.63,-149.64"
         style="fill:#bdc2c5;fill-opacity:1;fill-rule:nonzero;stroke:none"
         id="path210" />
      <path
         d="m 5283.03,1185.3 -329.46,314.72 v 364.42 h 57.01 V 1524.4 l 311.82,-297.93 -39.37,-41.17"
         style="fill:#cdcdcd;fill-opacity:1;fill-rule:nonzero;stroke:none"
         id="path212" />
      <path
         d="m 6850.75,7374.46 c 1.03,-38.63 -29.43,-70.77 -68.05,-71.83 -38.64,-1.04 -70.8,29.42 -71.83,68.06 -1.05,38.63 29.42,70.78 68.04,71.82 38.63,1.04 70.8,-29.41 71.84,-68.05"
         style="fill:#c84b2a;fill-opacity:1;fill-rule:nonzero;stroke:none"
         id="path214" />
      <path
         d="m 8560.82,5027.86 c 1.02,-38.61 -29.43,-70.77 -68.06,-71.82 -38.63,-1.05 -70.78,29.43 -71.82,68.06 -1.05,38.61 29.41,70.77 68.04,71.82 38.63,1.03 70.79,-29.41 71.84,-68.06"
         style="fill:#60a4c2;fill-opacity:1;fill-rule:nonzero;stroke:none"
         id="path216" />
      <path
         d="m 5093.17,7205.83 c 1.05,-38.61 -29.42,-70.79 -68.05,-71.83 -38.62,-1.04 -70.78,29.44 -71.82,68.05 -1.05,38.61 29.41,70.79 68.05,71.83 38.62,1.04 70.77,-29.42 71.82,-68.05"
         style="fill:#60a4c2;fill-opacity:1;fill-rule:nonzero;stroke:none"
         id="path218" />
      <path
         d="m 9482.35,6999.21 c 1.05,-38.61 -29.42,-70.77 -68.04,-71.83 -38.63,-1.04 -70.79,29.44 -71.82,68.05 -1.05,38.63 29.41,70.79 68.04,71.84 38.63,1.05 70.78,-29.43 71.82,-68.06"
         style="fill:#828282;fill-opacity:1;fill-rule:nonzero;stroke:none"
         id="path220" />
      <path
         d="m 3057.13,7488.47 c 1.03,-38.64 -29.42,-70.77 -68.06,-71.83 -38.62,-1.04 -70.77,29.42 -71.82,68.05 -1.05,38.63 29.42,70.79 68.04,71.83 38.63,1.04 70.79,-29.42 71.84,-68.05"
         style="fill:#828282;fill-opacity:1;fill-rule:nonzero;stroke:none"
         id="path222" />
      <path
         d="m 3681.11,5334.82 c 1.03,-38.61 -29.42,-70.78 -68.05,-71.82 -38.62,-1.05 -70.78,29.42 -71.82,68.04 -1.05,38.63 29.42,70.78 68.04,71.82 38.63,1.05 70.79,-29.4 71.83,-68.04"
         style="fill:#828282;fill-opacity:1;fill-rule:nonzero;stroke:none"
         id="path224" />
      <path
         d="m 6185.72,3057.85 c 1.03,-38.61 -29.43,-70.78 -68.05,-71.82 -38.62,-1.05 -70.78,29.42 -71.83,68.03 -1.05,38.64 29.42,70.8 68.05,71.85 38.62,1.04 70.78,-29.43 71.83,-68.06"
         style="fill:#828282;fill-opacity:1;fill-rule:nonzero;stroke:none"
         id="path226" />
      <path
         d="m 4741.09,1500.03 h -28.5 v 1097.29 h 28.5 V 1500.03"
         style="fill:#cacaca;fill-opacity:1;fill-rule:nonzero;stroke:none"
         id="path228" />
      <path
         d="m 4808.15,1550.74 c 1.05,-38.63 -29.4,-70.79 -68.03,-71.83 -38.64,-1.06 -70.8,29.42 -71.84,68.03 -1.03,38.64 29.42,70.79 68.05,71.84 38.64,1.05 70.78,-29.42 71.82,-68.04"
         style="fill:#828282;fill-opacity:1;fill-rule:nonzero;stroke:none"
         id="path230" />
      <path
         d="m 6652.54,2441.88 c 1.04,-38.64 -29.42,-70.79 -68.04,-71.83 -38.63,-1.03 -70.78,29.4 -71.83,68.06 -1.05,38.61 29.42,70.78 68.05,71.82 38.62,1.03 70.79,-29.42 71.82,-68.05"
         style="fill:#828282;fill-opacity:1;fill-rule:nonzero;stroke:none"
         id="path232" />
      <path
         d="m 7638.66,3977.21 c -37.48,-9.41 -75.49,13.33 -84.92,50.79 -9.42,37.49 13.31,75.51 50.78,84.92 37.48,9.42 75.49,-13.31 84.92,-50.8 9.43,-37.46 -13.32,-75.49 -50.78,-84.91"
         style="fill:#cdcdcd;fill-opacity:1;fill-rule:nonzero;stroke:none"
         id="path234" />
      <path
         d="m 1962.79,3925.82 c 1.06,-38.63 -29.41,-70.77 -68.04,-71.83 -38.63,-1.04 -70.79,29.44 -71.83,68.06 -1.05,38.62 29.42,70.78 68.05,71.83 38.63,1.05 70.76,-29.43 71.82,-68.06"
         style="fill:#636363;fill-opacity:1;fill-rule:nonzero;stroke:none"
         id="path236" />
      <path
         d="m 3191.33,2556.83 -607.55,625.04 38.01,36.93 607.55,-625.05 -38.01,-36.92"
         style="fill:#cdcdcd;fill-opacity:1;fill-rule:nonzero;stroke:none"
         id="path238" />
      <path
         d="m 3448.62,6587.02 c 0,-61.66 -49.98,-111.64 -111.64,-111.64 -61.66,0 -111.64,49.98 -111.64,111.64 0,61.67 49.98,111.65 111.64,111.65 61.66,0 111.64,-49.98 111.64,-111.65"
         style="fill:#bdc2c5;fill-opacity:1;fill-rule:nonzero;stroke:none"
         id="path240" />
      <path
         d="m 4702.67,1263.84 c 0,-61.64 -49.99,-111.64 -111.64,-111.64 -61.66,0 -111.64,50 -111.64,111.64 0,61.65 49.98,111.63 111.64,111.63 61.65,0 111.64,-49.98 111.64,-111.63"
         style="fill:#bdc2c5;fill-opacity:1;fill-rule:nonzero;stroke:none"
         id="path242" />
      <path
         d="m 4009.07,2786.28 h -736.1 l -4.14,4.05 -540.39,526.12 19.88,20.41 536.24,-522.07 h 724.51 v -28.51"
         style="fill:#cacaca;fill-opacity:1;fill-rule:nonzero;stroke:none"
         id="path244" />
      <path
         d="m 4076.64,2804.79 c 1.03,-38.61 -29.43,-70.78 -68.07,-71.82 -38.61,-1.05 -70.77,29.42 -71.81,68.05 -1.05,38.64 29.42,70.79 68.03,71.83 38.64,1.04 70.79,-29.42 71.85,-68.06"
         style="fill:#828282;fill-opacity:1;fill-rule:nonzero;stroke:none"
         id="path246" />
      <path
         d="m 2036.67,5461.1 c -1.04,38.64 29.43,70.78 68.05,71.83 38.62,1.04 70.79,-29.42 71.84,-68.04 1.04,-38.63 -29.43,-70.79 -68.04,-71.82 -38.64,-1.05 -70.8,29.42 -71.85,68.03"
         style="fill:#cdcdcd;fill-opacity:1;fill-rule:nonzero;stroke:none"
         id="path248" />
      <path
         d="M 10120.2,4531.97 H 9060.9 v 28.52 h 1059.3 v -28.52"
         style="fill:#cdcdcd;fill-opacity:1;fill-rule:nonzero;stroke:none"
         id="path250" />
      <path
         d="m 10045.5,4539.59 c -1,38.59 29.4,70.77 68,71.81 38.7,1.04 70.8,-29.43 71.9,-68.04 1,-38.63 -29.5,-70.8 -68.1,-71.83 -38.6,-1.04 -70.8,29.41 -71.8,68.06"
         style="fill:#cdcdcd;fill-opacity:1;fill-rule:nonzero;stroke:none"
         id="path252" />
      <path
         d="m 9740.17,4460.7 h -769.52 v 28.52 h 769.52 v -28.52"
         style="fill:#cdcdcd;fill-opacity:1;fill-rule:nonzero;stroke:none"
         id="path254" />
      <path
         d="m 7141.82,9766.66 h -793.28 v 28.51 h 793.28 v -28.51"
         style="fill:#cdcdcd;fill-opacity:1;fill-rule:nonzero;stroke:none"
         id="path256" />
      <path
         d="m 6423.23,9787.55 c 1.04,-38.61 -29.43,-70.77 -68.05,-71.83 -38.63,-1.04 -70.8,29.43 -71.83,68.06 -1.04,38.6 29.41,70.78 68.05,71.83 38.62,1.03 70.79,-29.43 71.83,-68.06"
         style="fill:#9900a6;fill-opacity:1;fill-rule:nonzero;stroke:none"
         id="path258" />
      <path
         d="M 7163.19,9695.41 H 6638.3 v 28.51 h 524.89 v -28.51"
         style="fill:#cdcdcd;fill-opacity:1;fill-rule:nonzero;stroke:none"
         id="path260" />
      <path
         d="m 5378.91,7564.95 c 0,-60 -48.66,-108.64 -108.67,-108.64 -60.01,0 -108.66,48.64 -108.66,108.64 0,60.02 48.65,108.67 108.66,108.67 60.01,0 108.67,-48.65 108.67,-108.67"
         style="fill:#cdcdcd;fill-opacity:1;fill-rule:nonzero;stroke:none"
         id="path262" />
      <path
         d="m 10186.7,5749.94 h -814.08 v 53.01 h 814.08 v -53.01"
         style="fill:#cdcdcd;fill-opacity:1;fill-rule:nonzero;stroke:none"
         id="path264" />
      <path
         d="m 3097.19,2832.6 -389.52,389.51 20.15,20.17 389.52,-389.52 -20.15,-20.16"
         style="fill:#cdcdcd;fill-opacity:1;fill-rule:nonzero;stroke:none"
         id="path266" />
      <path
         d="m 4705.72,5988.54 -1651.29,1287.31 17.51,22.47 1651.29,-1287.31 -17.51,-22.47"
         style="fill:#cdcdcd;fill-opacity:1;fill-rule:nonzero;stroke:none"
         id="path268" />
      <path
         d="m 1977.03,7043.21 -237.52,223.25 19.53,20.78 237.52,-223.25 -19.53,-20.78"
         style="fill:#cdcdcd;fill-opacity:1;fill-rule:nonzero;stroke:none"
         id="path270" />
      <path
         d="m 6208.89,3638.92 h -28.5 v 722.04 h 28.5 v -722.04"
         style="fill:#cdcdcd;fill-opacity:1;fill-rule:nonzero;stroke:none"
         id="path272" />
      <path
         d="m 7052.87,2542.11 h -313.51 v 28.51 h 313.51 v -28.51"
         style="fill:#cdcdcd;fill-opacity:1;fill-rule:nonzero;stroke:none"
         id="path274" />
      <path
         d="m 7071.47,4285.96 -306.19,194.54 15.29,24.05 306.19,-194.54 -15.29,-24.05"
         style="fill:#cdcdcd;fill-opacity:1;fill-rule:nonzero;stroke:none"
         id="path276" />
      <path
         d="m 10004.4,5667.26 h -722.03 v 28.51 h 722.03 v -28.51"
         style="fill:#cdcdcd;fill-opacity:1;fill-rule:nonzero;stroke:none"
         id="path278" />
      <path
         d="m 9569.19,8095.99 c -37.44,0 -67.9,-30.48 -67.9,-67.93 0,-37.44 30.46,-67.9 67.9,-67.9 37.44,0 67.91,30.46 67.91,67.9 0,37.45 -30.47,67.93 -67.91,67.93 z m 0,-188.84 c -66.67,0 -120.91,54.24 -120.91,120.91 0,66.68 54.24,120.93 120.91,120.93 66.67,0 120.92,-54.25 120.92,-120.93 0,-66.67 -54.25,-120.91 -120.92,-120.91"
         style="fill:#cdcdcd;fill-opacity:1;fill-rule:nonzero;stroke:none"
         id="path280" />
      <path
         d="m 9492.6,8001.56 h -757.03 v 53 h 757.03 v -53"
         style="fill:#cdcdcd;fill-opacity:1;fill-rule:nonzero;stroke:none"
         id="path282" />
      <path
         d="m 9310.31,7918.86 h -665 v 28.51 h 665 v -28.51"
         style="fill:#cdcdcd;fill-opacity:1;fill-rule:nonzero;stroke:none"
         id="path284" />
      <path
         d="m 2714.93,1979.33 c -37.43,0 -67.9,-30.46 -67.9,-67.91 0,-37.46 30.47,-67.9 67.9,-67.9 37.44,0 67.91,30.44 67.91,67.9 0,37.45 -30.47,67.91 -67.91,67.91 z m 0,-188.82 c -66.67,0 -120.91,54.24 -120.91,120.91 0,66.67 54.24,120.91 120.91,120.91 66.68,0 120.91,-54.24 120.91,-120.91 0,-66.67 -54.23,-120.91 -120.91,-120.91"
         style="fill:#cdcdcd;fill-opacity:1;fill-rule:nonzero;stroke:none"
         id="path286" />
      <path
         d="m 3605.59,1884.91 h -814.06 v 53.01 h 814.06 v -53.01"
         style="fill:#cdcdcd;fill-opacity:1;fill-rule:nonzero;stroke:none"
         id="path288" />
      <path
         d="m 3695.84,1766.53 h -722.02 v 28.52 h 722.02 v -28.52"
         style="fill:#cdcdcd;fill-opacity:1;fill-rule:nonzero;stroke:none"
         id="path290" />
      <path
         d="m 4301.25,8873.63 h -28.49 v 608.03 h 28.49 v -608.03"
         style="fill:#cdcdcd;fill-opacity:1;fill-rule:nonzero;stroke:none"
         id="path292" />
      <path
         d="m 4643.22,8688.38 h -28.5 v 608.03 h 28.5 v -608.03"
         style="fill:#cdcdcd;fill-opacity:1;fill-rule:nonzero;stroke:none"
         id="path294" />
      <path
         d="m 4201.51,8624.24 h -28.5 v 653.16 h 28.5 v -653.16"
         style="fill:#cdcdcd;fill-opacity:1;fill-rule:nonzero;stroke:none"
         id="path296" />
      <path
         d="m 9939.68,5067.54 h -127.9 l -160.39,109.36 16.06,23.55 153.11,-104.4 h 119.12 v -28.51"
         style="fill:#cdcdcd;fill-opacity:1;fill-rule:nonzero;stroke:none"
         id="path298" />
      <path
         d="m 9930.17,4967.79 h -177.91 l -418.18,298.35 16.55,23.21 410.76,-293.04 h 168.78 v -28.52"
         style="fill:#cdcdcd;fill-opacity:1;fill-rule:nonzero;stroke:none"
         id="path300" />
      <path
         d="m 7968.24,6708.13 c 0,-55.61 -45.09,-100.71 -100.7,-100.71 -55.62,0 -100.71,45.1 -100.71,100.71 0,55.61 45.09,100.71 100.71,100.71 55.61,0 100.7,-45.1 100.7,-100.71"
         style="fill:#60a4c2;fill-opacity:1;fill-rule:nonzero;stroke:none"
         id="path302" />
      <path
         d="m 7867.54,6835.2 c -70.06,0 -127.06,-57 -127.06,-127.07 0,-70.06 57,-127.06 127.06,-127.06 70.06,0 127.04,57 127.04,127.06 0,70.07 -56.98,127.07 -127.04,127.07 z m 0,-276.71 c -82.52,0 -149.65,67.13 -149.65,149.64 0,82.51 67.13,149.64 149.65,149.64 82.51,0 149.64,-67.13 149.64,-149.64 0,-82.51 -67.13,-149.64 -149.64,-149.64"
         style="fill:#60a4c2;fill-opacity:1;fill-rule:nonzero;stroke:none"
         id="path304" />
      <path
         d="m 8528.66,9096.89 c 0,-55.62 -45.11,-100.71 -100.72,-100.71 -55.62,0 -100.7,45.09 -100.7,100.71 0,55.63 45.08,100.7 100.7,100.7 55.61,0 100.72,-45.07 100.72,-100.7"
         style="fill:#bdc2c5;fill-opacity:1;fill-rule:nonzero;stroke:none"
         id="path306" />
      <path
         d="m 8427.94,9223.94 c -70.06,0 -127.06,-56.98 -127.06,-127.05 0,-70.04 57,-127.06 127.06,-127.06 70.06,0 127.06,57.02 127.06,127.06 0,70.07 -57,127.05 -127.06,127.05 z m 0,-276.69 c -82.51,0 -149.64,67.12 -149.64,149.64 0,82.52 67.13,149.65 149.64,149.65 82.52,0 149.65,-67.13 149.65,-149.65 0,-82.52 -67.13,-149.64 -149.65,-149.64"
         style="fill:#bdc2c5;fill-opacity:1;fill-rule:nonzero;stroke:none"
         id="path308" />
      <path
         d="m 7078.62,9375.39 c -15.08,0 -27.31,12.22 -27.31,27.3 0,15.06 12.23,27.29 27.31,27.29 15.06,0 27.28,-12.23 27.28,-27.29 0,-15.08 -12.22,-27.3 -27.28,-27.3 z m 18.48,-76.08 h -183.59 v 19.85 h 183.59 z m -192.39,103.38 c 0,15.06 12.21,27.29 27.29,27.29 15.06,0 27.28,-12.23 27.28,-27.29 0,-15.08 -12.22,-27.3 -27.28,-27.3 -15.08,0 -27.29,12.22 -27.29,27.3 z m 243.72,73.61 h -69.86 v 34.37 h -15.15 v -34.37 h -116.25 v 34.37 h -15.13 v -34.37 h -69.87 c -8.19,0 -14.83,-6.65 -14.83,-14.83 V 9276.1 c 0,-8.19 6.64,-14.83 14.83,-14.83 h 286.26 c 8.19,0 14.84,6.64 14.84,14.83 v 185.37 c 0,8.18 -6.65,14.83 -14.84,14.83"
         style="fill:#999999;fill-opacity:1;fill-rule:nonzero;stroke:none"
         id="path310" />
      <path
         d="m 6805.87,9083.1 v 0 h -56.75 v 159.65 h 56.75 V 9083.1"
         style="fill:#999999;fill-opacity:1;fill-rule:nonzero;stroke:none"
         id="path312" />
      <path
         d="m 6805.87,8911.87 v 0 h -56.75 v 159.68 h 56.75 v -159.68"
         style="fill:#999999;fill-opacity:1;fill-rule:nonzero;stroke:none"
         id="path314" />
      <path
         d="m 6777.49,8908.26 c -34.79,0 -63,-28.21 -63,-62.99 0,-27.92 18.16,-51.54 43.27,-59.81 v 21.48 c -13.92,7.2 -23.56,21.58 -23.56,38.33 0,23.9 19.38,43.27 43.29,43.27 23.9,0 43.28,-19.37 43.28,-43.27 0,-16.77 -9.63,-31.13 -23.56,-38.33 v -21.48 c 25.12,8.27 43.27,31.89 43.27,59.81 0,34.78 -28.2,62.99 -62.99,62.99"
         style="fill:#999999;fill-opacity:1;fill-rule:nonzero;stroke:none"
         id="path316" />
      <path
         d="m 7263.2,9083.1 v 0 h -56.76 v 159.65 h 56.76 V 9083.1"
         style="fill:#999999;fill-opacity:1;fill-rule:nonzero;stroke:none"
         id="path318" />
      <path
         d="m 7263.2,8911.87 v 0 h -56.76 v 159.68 h 56.76 v -159.68"
         style="fill:#999999;fill-opacity:1;fill-rule:nonzero;stroke:none"
         id="path320" />
      <path
         d="m 7234.8,8908.26 c -34.78,0 -62.98,-28.21 -62.98,-62.99 0,-27.92 18.16,-51.54 43.27,-59.81 v 21.48 c -13.93,7.2 -23.56,21.58 -23.56,38.33 0,23.9 19.37,43.27 43.27,43.27 23.92,0 43.3,-19.37 43.3,-43.27 0,-16.77 -9.63,-31.13 -23.56,-38.33 v -21.48 c 25.11,8.27 43.27,31.89 43.27,59.81 0,34.78 -28.21,62.99 -63.01,62.99"
         style="fill:#999999;fill-opacity:1;fill-rule:nonzero;stroke:none"
         id="path322" />
      <path
         d="m 7123.77,9046.57 c 0,-12.16 -9.87,-22.03 -22.04,-22.03 h -69.1 l 46.84,46.87 c 5.39,5.37 5.39,14.08 0,19.47 -5.38,5.39 -14.1,5.39 -19.47,0 l -66.32,-66.34 h -84.8 c -12.18,0 -22.04,9.87 -22.04,22.03 v 77.16 c 0,12.17 9.86,22.03 22.04,22.03 h 192.85 c 12.17,0 22.04,-9.86 22.04,-22.03 z m 55.8,204.79 h -348.53 c -8.19,0 -14.83,-6.66 -14.83,-14.84 v -263.26 c 0,-8.19 6.64,-14.83 14.83,-14.83 h 348.53 c 8.19,0 14.83,6.64 14.83,14.83 v 263.26 c 0,8.18 -6.64,14.84 -14.83,14.84"
         style="fill:#999999;fill-opacity:1;fill-rule:nonzero;stroke:none"
         id="path324" />
      <path
         d="m 6983.81,8796.34 h -93.66 v 146.02 h 93.66 v -146.02"
         style="fill:#999999;fill-opacity:1;fill-rule:nonzero;stroke:none"
         id="path326" />
      <path
         d="m 6983.81,8711.93 h -93.66 v 69.27 h 93.66 v -69.27"
         style="fill:#999999;fill-opacity:1;fill-rule:nonzero;stroke:none"
         id="path328" />
      <path
         d="m 6998.9,8671.52 c 0,-17.11 -12.03,-30.99 -26.86,-30.99 h -106.07 c -14.85,0 -26.85,13.88 -26.85,30.99 0,17.11 12,31 26.85,31 h 106.07 c 14.83,0 26.86,-13.89 26.86,-31"
         style="fill:#999999;fill-opacity:1;fill-rule:nonzero;stroke:none"
         id="path330" />
      <path
         d="m 7028.51,8796.34 h 93.66 v 146.02 h -93.66 v -146.02"
         style="fill:#999999;fill-opacity:1;fill-rule:nonzero;stroke:none"
         id="path332" />
      <path
         d="m 7028.51,8711.93 h 93.66 v 69.27 h -93.66 v -69.27"
         style="fill:#999999;fill-opacity:1;fill-rule:nonzero;stroke:none"
         id="path334" />
      <path
         d="m 7013.41,8671.52 c 0,-17.11 12.03,-30.99 26.87,-30.99 h 106.06 c 14.84,0 26.86,13.88 26.86,30.99 0,17.11 -12.02,31 -26.86,31 h -106.06 c -14.84,0 -26.87,-13.89 -26.87,-31"
         style="fill:#999999;fill-opacity:1;fill-rule:nonzero;stroke:none"
         id="path336" />
      <path
         d="m 2088.99,4768.76 c 0,81.02 -78.96,149.12 -186.03,168.84 4.46,-16.5 6.71,-33.38 6.71,-50.53 0,-36.28 -10.06,-71.3 -29.9,-104.07 -18.5,-30.58 -44.71,-57.83 -77.88,-81.02 -39.01,-27.24 -85.43,-47.25 -135.92,-59.05 44.89,-30.19 105.93,-48.75 173.17,-48.75 9.67,0 19.21,0.39 28.6,1.13 l 170.3,-78.91 -77.16,99.88 c 76.44,29.86 128.11,86.95 128.11,152.48"
         style="fill:#bdc2c5;fill-opacity:1;fill-rule:nonzero;stroke:none"
         id="path338" />
      <path
         d="m 1876.76,4887.07 c 0,123.47 -143.26,223.56 -319.98,223.56 -176.73,0 -319.97,-100.09 -319.97,-223.56 0,-93.91 82.84,-174.27 200.26,-207.4 l -52.63,-141 193.18,125.29 c 167.01,7.52 299.14,104.52 299.14,223.11"
         style="fill:#bdc2c5;fill-opacity:1;fill-rule:nonzero;stroke:none"
         id="path340" />
      <path
         d="m 6203.02,2661.87 c 1.6,16.44 -2.69,42.23 -20,60.89 -8.77,9.43 -24.46,20.65 -49.45,20.65 h -116.24 c -0.22,16.82 -0.23,43.21 1,66.62 1.76,33.82 -17.14,75.05 -35.85,96.67 -9.85,11.41 -19.81,17.79 -29.67,19 -3.17,0.39 -6.43,0.6 -9.74,0.6 -21.45,0 -46.78,-8.57 -51.72,-27.35 -2.19,-8.18 -0.15,-16.79 2.01,-25.89 2.85,-12.1 6.43,-27.17 2.69,-48.2 -6.4,-36.01 -61.22,-123.49 -78.19,-138.28 -5.04,-4.35 -12.46,-8.05 -20.33,-11.02 -5.05,13.19 -18.28,23.01 -32.46,23.01 h -127.7 c -16.21,0 -27.78,-12.87 -26.28,-28.94 l -1.35,-250.88 0.14,-2.17 c 2.24,-16.67 17.63,-30.21 34.32,-30.21 h 163 c 16.66,0 28.38,13.54 26.14,30.21 l -1.13,8.3 c 5.71,-0.81 10.29,-1.86 13.24,-3.05 13.7,-5.51 83.62,-33.19 117.59,-33.19 h 145.4 c 9.89,0 42.96,2.19 52.9,30 4.78,13.38 2.96,26.02 -1.67,36.81 -0.05,1.03 -0.1,1.93 -0.13,2.54 l -0.03,0.76 c 18.16,4.83 29.89,16.92 33.02,34.81 3.75,21.61 -2.72,36.54 -9.24,45.56 19.22,8.96 29.25,26.91 27.21,51.18 -1.59,18.96 -11.18,32.89 -23.71,42.82 9.42,6.7 15.04,16.46 16.23,28.75"
         style="fill:#bdc2c5;fill-opacity:1;fill-rule:nonzero;stroke:none"
         id="path342" />
      <path
         d="m 4090.47,6219.82 c -5.35,0 -10.63,-0.29 -15.83,-0.83 0.28,4.08 0.43,8.16 0.43,12.29 0,98.48 -79.84,178.29 -178.3,178.29 -92.91,0 -169.18,-71.06 -177.51,-161.8 31.73,-24.69 52.29,-63.08 52.78,-106.21 h 1.28 c 61.65,0 111.78,-47.98 111.78,-106.94 0,-36.59 -19.43,-69.02 -48.92,-88.33 h 255.03 l 0.01,0.02 c 78.94,0.39 142.81,61.47 142.81,136.74 0,75.53 -64.28,136.77 -143.56,136.77"
         style="fill:#636363;fill-opacity:1;fill-rule:nonzero;stroke:none"
         id="path344" />
      <path
         d="m 3865.77,6034.62 c 0,48.31 -41.46,87.62 -92.45,87.62 -3.37,0 -6.82,-0.19 -10.24,-0.54 l -11.44,-1.2 0.79,11.46 c 0.19,2.76 0.27,5.48 0.27,8.08 0,64.61 -52.55,117.17 -117.14,117.17 -29.63,0 -57.92,-11.11 -79.64,-31.24 -21.6,-20.05 -34.79,-47.18 -37.13,-76.42 l -0.82,-10.16 -10.09,1.34 c -4.27,0.56 -8.6,0.85 -12.88,0.85 -53.64,0 -97.29,-43.63 -97.29,-97.28 0,-53.36 43.4,-97 96.77,-97.28 h 1.76 276.12 1.46 c 50.71,0.26 91.95,39.54 91.95,87.6"
         style="fill:#636363;fill-opacity:1;fill-rule:nonzero;stroke:none"
         id="path346" />
      <path
         d="m 5054.22,3705.7 c -66.47,0 -120.34,53.89 -120.34,120.34 0,66.47 53.87,120.34 120.34,120.34 66.45,0 120.34,-53.87 120.34,-120.34 0,-66.45 -53.89,-120.34 -120.34,-120.34 z m 223.06,286.97 h -13.13 v 12.71 c 0,2.54 -2.06,4.58 -4.57,4.58 h -71.1 c -2.52,0 -4.56,-2.04 -4.56,-4.58 v -12.71 h -53.87 l -22.87,34.65 c 0,2.92 -2.78,5.3 -6.17,5.3 h -31.26 -31.07 -31.25 c -3.39,0 -6.15,-2.38 -6.15,-5.3 l -22.89,-34.65 h -147.23 c -15.84,0 -28.67,-12.85 -28.67,-28.69 v -275.91 c 0,-15.81 12.83,-28.65 28.67,-28.65 h 446.12 c 15.83,0 28.66,12.84 28.66,28.65 v 275.91 c 0,15.84 -12.83,28.69 -28.66,28.69"
         style="fill:#cdcdcd;fill-opacity:1;fill-rule:nonzero;stroke:none"
         id="path348" />
      <path
         d="m 5054.22,3906.24 c -44.31,0 -80.23,-35.89 -80.23,-80.2 0,-44.3 35.92,-80.23 80.23,-80.23 44.31,0 80.21,35.93 80.21,80.23 0,44.31 -35.9,80.2 -80.21,80.2"
         style="fill:#cdcdcd;fill-opacity:1;fill-rule:nonzero;stroke:none"
         id="path350" />
      <path
         d="m 9120.05,4597.24 c 0,-129.94 -235.23,-294.76 -235.23,-294.76 0,0 -235.22,164.82 -235.22,294.76 0,129.93 171.45,150.71 235.22,39.92 59.94,108.64 235.23,90.01 235.23,-39.92"
         style="fill:#999999;fill-opacity:1;fill-rule:nonzero;stroke:none"
         id="path352" />
      <path
         d="m 4150.73,1812.11 -25.29,-0.03 c 0,0 0,-272.17 0,-360.49 -22.21,5.98 -51.46,4 -80.75,-7.25 -52.24,-20.08 -84.76,-62 -72.61,-93.65 12.18,-31.67 64.37,-41.04 116.63,-20.97 43.75,16.78 73.54,48.89 74.98,77.48 l 0.15,-0.07 v 278.68 c 33.38,-14.41 71.79,-64.9 72.69,-120.81 0.9,-55.93 -14.2,-79.59 -22.73,-86.41 -11.82,-9.42 0.99,-15.88 8.65,-10.12 14.19,10.6 46.93,35.19 46.93,120.86 0,85.67 -51.66,121.58 -88.4,161.45 -32.53,35.33 -30.25,61.33 -30.25,61.33"
         style="fill:#636363;fill-opacity:1;fill-rule:nonzero;stroke:none"
         id="path354" />
      <path
         d="m 6092.63,10006.1 c -14.57,17 -12.6,42.5 4.38,57.1 16.97,14.6 42.54,12.6 57.1,-4.4 14.57,-17 12.59,-42.5 -4.38,-57.1 -16.98,-14.55 -42.54,-12.61 -57.1,4.4 z m -67.63,-291.19 7.67,60.85 c 53.2,30.02 97.56,63.92 137.22,111.88 120.43,145.66 108.24,265.06 108.24,265.06 l 35.33,43.7 -47.63,-29.3 c 0,0 -116.17,30.2 -278.46,-66.6 -53.39,-31.8 -93.63,-70.4 -131.38,-118.39 l -61.58,1.73 c 0,0 -87.14,-15.19 -180.75,-126.43 0,0 96.9,17.66 145.7,-18.22 -7.63,-12.17 -15.5,-24.75 -23.65,-37.73 0,0 -3.85,-22.55 36.65,-69.8 40.49,-47.22 63.6,-47.12 63.6,-47.12 14.08,6.08 27.67,11.93 40.86,17.61 27.84,-53.7 -4.32,-146.59 -4.32,-146.59 124.23,75.53 152.5,159.35 152.5,159.35"
         style="fill:#9900a6;fill-opacity:1;fill-rule:nonzero;stroke:none"
         id="path356" />
      <path
         d="m 2037.3,2713.96 c -62.89,0 -113.85,-77.01 -113.85,-172.01 0,-4.54 0.11,-9.06 0.34,-13.49 h 158.44 c 3.94,49.93 17.25,95.5 37.2,132.61 -20.68,32.61 -49.84,52.89 -82.13,52.89"
         style="fill:#60a4c2;fill-opacity:1;fill-rule:nonzero;stroke:none"
         id="path358" />
      <path
         d="m 2037.3,2861.51 c -39.97,0 -72.39,-30.92 -72.39,-69.13 0,-38.18 32.42,-69.11 72.39,-69.11 39.99,0 72.42,30.93 72.42,69.11 0,38.21 -32.43,69.13 -72.42,69.13"
         style="fill:#60a4c2;fill-opacity:1;fill-rule:nonzero;stroke:none"
         id="path360" />
      <path
         d="m 2416.8,2652.67 c -30.47,61.7 -79.18,101.69 -134.06,101.69 -52.4,0 -99.18,-36.46 -129.83,-93.48 -19.33,-36.06 -32.3,-80.27 -36.13,-128.68 -0.76,-9.99 -1.2,-20.06 -1.2,-30.32 0,-6.67 0.21,-13.27 0.52,-19.8 h 333.27 c 0.33,6.53 0.46,13.13 0.46,19.8 0,4.98 -0.04,9.91 -0.3,14.88 -1.91,50.77 -13.78,97.55 -32.73,135.91"
         style="fill:#60a4c2;fill-opacity:1;fill-rule:nonzero;stroke:none"
         id="path362" />
      <path
         d="m 2282.74,2970.98 c -58.68,0 -106.26,-45.46 -106.26,-101.54 0,-56.08 47.58,-101.47 106.26,-101.47 58.7,0 106.23,45.39 106.23,101.47 0,56.08 -47.53,101.54 -106.23,101.54"
         style="fill:#60a4c2;fill-opacity:1;fill-rule:nonzero;stroke:none"
         id="path364" />
      <path
         d="m 3361.74,3289.24 c 0,-159.61 129.84,-289.48 289.48,-289.48 55.06,0 108.78,15.91 154.72,44.94 l 33.98,-59.45 54.99,103.83 54.97,103.84 -117.37,5.25 -117.36,5.24 32.64,-57.06 c -28.21,-19.22 -61.44,-29.56 -96.57,-29.56 -95.09,0 -172.46,77.36 -172.46,172.45 0,95.05 77.37,172.39 172.46,172.39 49.13,0 96.11,-21.07 128.81,-57.81 21.48,-24.13 58.5,-26.29 82.62,-4.77 12.98,11.54 19.63,27.57 19.63,43.7 -0.03,13.83 -4.91,27.75 -14.83,38.88 -54.92,61.68 -133.73,97.05 -216.23,97.05 -159.64,0 -289.48,-129.85 -289.48,-289.44"
         style="fill:#cdcdcd;fill-opacity:1;fill-rule:nonzero;stroke:none"
         id="path366" />
      <path
         d="m 1275.33,5530.91 c -37.44,0 -67.9,-30.46 -67.9,-67.91 0,-37.45 30.46,-67.9 67.9,-67.9 37.45,0 67.92,30.45 67.92,67.9 0,37.45 -30.47,67.91 -67.92,67.91 z m 0,-188.82 c -66.67,0 -120.91,54.24 -120.91,120.91 0,66.67 54.24,120.91 120.91,120.91 66.68,0 120.92,-54.24 120.92,-120.91 0,-66.67 -54.24,-120.91 -120.92,-120.91"
         style="fill:#c84b2a;fill-opacity:1;fill-rule:nonzero;stroke:none"
         id="path368" />
      <path
         d="m 9615.49,5133.99 c -32.42,21.02 -41.67,64.35 -20.66,96.78 21.02,32.41 64.34,41.65 96.76,20.66 32.43,-21.03 41.68,-64.34 20.67,-96.77 -21.02,-32.42 -64.34,-41.68 -96.77,-20.67"
         style="fill:#cdcdcd;fill-opacity:1;fill-rule:nonzero;stroke:none"
         id="path370" />
      <path
         d="m 5442.16,2423.9 c 0,-338.43 -274.36,-612.79 -612.78,-612.79 -338.44,0 -612.78,274.36 -612.78,612.79 0,338.42 274.34,612.79 612.78,612.79 338.42,0 612.78,-274.37 612.78,-612.79"
         style="fill:#c84b2a;fill-opacity:1;fill-rule:nonzero;stroke:none"
         id="path372" />
      <path
         d="m 3926.57,1905 c 22.24,-206.3 -126.96,-391.55 -333.26,-413.79 -206.28,-22.25 -391.54,126.96 -413.78,333.24 -22.24,206.31 126.96,391.57 333.26,413.79 206.3,22.25 391.55,-126.96 413.78,-333.24"
         style="fill:#eebd3a;fill-opacity:1;fill-rule:nonzero;stroke:none"
         id="path374" />
      <path
         d="m 8315.73,2584.01 c 50.5,-367.09 -206.15,-705.61 -573.24,-756.12 -367.11,-50.51 -705.64,206.13 -756.15,573.24 -50.51,367.09 206.15,705.62 573.24,756.13 367.1,50.5 705.64,-206.13 756.15,-573.25"
         style="fill:#9900a6;fill-opacity:1;fill-rule:nonzero;stroke:none"
         id="path376" />
      <path
         d="m 9588.89,5694.04 c 0,-322.69 -261.59,-584.28 -584.27,-584.28 -322.71,0 -584.29,261.59 -584.29,584.28 0,322.69 261.58,584.28 584.29,584.28 322.68,0 584.27,-261.59 584.27,-584.28"
         style="fill:#a9c732;fill-opacity:1;fill-rule:nonzero;stroke:none"
         id="path378" />
      <path
         d="m 2475.19,6933.55 c 0,-208.56 -169.09,-377.65 -377.66,-377.65 -208.56,0 -377.64,169.09 -377.64,377.65 0,208.57 169.08,377.64 377.64,377.64 208.57,0 377.66,-169.07 377.66,-377.64"
         style="fill:#60a4c2;fill-opacity:1;fill-rule:nonzero;stroke:none"
         id="path380" />
      <path
         d="m 7154.56,5466.16 c 0,-790.95 -641.2,-1432.15 -1432.16,-1432.15 -790.95,0 -1432.15,641.2 -1432.15,1432.15 0,790.96 641.2,1432.16 1432.15,1432.16 790.96,0 1432.16,-641.2 1432.16,-1432.16"
         style="fill:#60a4c2;fill-opacity:1;fill-rule:nonzero;stroke:none"
         id="path382" />
      <path
         d="m 3057.53,3700.61 c 0,-291.23 -236.06,-527.29 -527.26,-527.29 -291.2,0 -527.27,236.06 -527.27,527.29 0,291.18 236.07,527.24 527.27,527.24 291.2,0 527.26,-236.06 527.26,-527.24"
         style="fill:#a9c732;fill-opacity:1;fill-rule:nonzero;stroke:none"
         id="path384" />
      <path
         d="m 9022.46,7841.85 c 0,-511.56 -414.7,-926.27 -926.27,-926.27 -511.56,0 -926.26,414.71 -926.26,926.27 0,511.57 414.7,926.27 926.26,926.27 511.57,0 926.27,-414.7 926.27,-926.27"
         style="fill:#eebd3a;fill-opacity:1;fill-rule:nonzero;stroke:none"
         id="path386" />
      <path
         d="m 5243.78,8350.36 c 0,-430.92 -349.32,-780.23 -780.23,-780.23 -430.9,0 -780.22,349.31 -780.22,780.23 0,430.89 349.32,780.2 780.22,780.2 430.91,0 780.23,-349.31 780.23,-780.2"
         style="fill:#c84b2a;fill-opacity:1;fill-rule:nonzero;stroke:none"
         id="path388" />
      <path
         d="m 8023.45,7960.64 c 7.1,-81.46 -53.16,-153.24 -134.59,-160.33 -81.45,-7.13 -153.23,53.19 -160.32,134.61 -7.11,81.44 53.16,153.24 134.59,160.3 81.49,7.09 153.26,-53.17 160.32,-134.58 z m 149.73,22.92 54.75,34.58 c -5.69,28.73 -14.77,56.19 -26.77,81.85 l -64.67,-4.69 c -6.3,11.2 -13.33,21.95 -21.01,32.15 l 30.12,57.22 c -19.04,21.64 -40.63,40.91 -64.21,57.43 l -53.6,-36.32 c -10.98,6.51 -22.4,12.28 -34.23,17.38 l -2.54,64.59 c -26.92,9.16 -55.2,15.12 -84.34,17.61 l -28.19,-58.21 c -9.41,0.07 -18.9,-0.28 -28.45,-1.09 -3.31,-0.32 -6.59,-0.74 -9.83,-1.13 l -34.56,54.81 c -28.77,-5.74 -56.2,-14.79 -81.88,-26.81 l 4.69,-64.67 c -11.17,-6.3 -21.93,-13.34 -32.1,-21.01 l -57.28,30.12 c -21.64,-19.06 -40.93,-40.63 -57.4,-64.25 l 36.35,-53.56 c -6.51,-11 -12.34,-22.41 -17.42,-34.22 l -64.61,-2.52 c -9.13,-26.95 -15.07,-55.19 -17.57,-84.38 l 58.24,-28.19 c -0.09,-9.42 0.23,-18.91 1.06,-28.45 0.32,-3.31 0.72,-6.56 1.12,-9.84 l -54.77,-34.54 c 5.72,-28.75 14.75,-56.18 26.77,-81.86 l 64.63,4.69 c 6.35,-11.2 13.35,-21.9 21.02,-32.13 l -30.1,-57.22 c 19.04,-21.69 40.64,-40.95 64.23,-57.43 l 53.58,36.32 c 11.01,-6.53 22.4,-12.35 34.21,-17.41 l 2.55,-64.63 c 26.93,-9.1 55.19,-15.09 84.33,-17.55 l 28.24,58.2 c 9.38,-0.07 18.9,0.27 28.46,1.08 3.29,0.29 6.54,0.74 9.8,1.14 l 34.54,-54.82 c 28.79,5.74 56.22,14.77 81.88,26.79 l -4.67,64.65 c 11.16,6.36 21.92,13.38 32.12,21.02 l 57.24,-30.1 c 21.62,19.06 40.91,40.61 57.44,64.22 l -36.34,53.59 c 6.46,11.01 12.3,22.43 17.39,34.22 l 64.6,2.53 c 9.14,26.95 15.1,55.22 17.55,84.36 l -58.18,28.21 c 0.05,9.41 -0.26,18.9 -1.09,28.46 -0.26,3.3 -0.72,6.54 -1.1,9.81"
         style="fill:#ffffff;fill-opacity:1;fill-rule:nonzero;stroke:none"
         id="path390" />
      <path
         d="m 8516.27,7710.55 c 30.92,-49.93 15.55,-115.46 -34.34,-146.41 -49.89,-30.93 -115.4,-15.54 -146.35,34.3 -30.98,49.89 -15.61,115.4 34.26,146.36 49.91,31 115.47,15.59 146.43,-34.25 z m 86.37,109.52 c -8.68,9.65 -18.02,18.45 -27.99,26.37 l 11.95,47.26 c -16.97,11.6 -35,21.25 -53.87,28.86 l -32.81,-36.19 c -12.21,3.92 -24.66,6.86 -37.32,8.79 l -13.37,47.03 c -20.26,1.53 -40.7,0.89 -61,-2.01 l -10.4,-47.62 c -12.42,-2.69 -24.63,-6.46 -36.67,-11.22 l -35.06,33.98 c -9.07,-4.32 -18.12,-9.17 -26.89,-14.63 -8.73,-5.4 -17.08,-11.3 -25.01,-17.48 l 14.88,-46.55 c -9.61,-8.72 -18.42,-18.03 -26.33,-27.94 l -47.29,11.9 c -11.6,-16.94 -21.25,-35 -28.85,-53.79 l 36.21,-32.86 c -3.94,-12.21 -6.82,-24.69 -8.76,-37.33 l -46.98,-13.38 c -1.59,-20.25 -0.94,-40.7 1.93,-61.06 l 47.68,-10.27 c 2.66,-12.45 6.41,-24.69 11.11,-36.79 l -33.98,-35.01 c 4.34,-9.12 9.23,-18.08 14.67,-26.8 5.45,-8.78 11.31,-17.16 17.5,-25.14 l 46.53,14.95 c 8.68,-9.6 18.08,-18.4 27.96,-26.32 l -11.89,-47.34 c 16.94,-11.55 34.96,-21.23 53.78,-28.77 l 32.86,36.16 c 12.22,-3.96 24.62,-6.85 37.33,-8.75 l 13.38,-47.02 c 20.21,-1.5 40.7,-0.94 61.01,1.93 l 10.32,47.66 c 12.44,2.68 24.7,6.44 36.76,11.18 l 35.08,-33.99 c 9.07,4.31 18.04,9.2 26.8,14.64 8.78,5.44 17.05,11.3 25.05,17.55 l -14.89,46.47 c 9.61,8.71 18.4,18.08 26.3,27.97 l 47.33,-11.9 c 11.57,16.94 21.28,35 28.8,53.8 l -36.16,32.91 c 3.9,12.14 6.83,24.59 8.78,37.24 l 46.97,13.36 c 1.58,20.27 0.9,40.7 -1.91,61.08 l -47.65,10.34 c -2.71,12.4 -6.5,24.7 -11.19,36.74 l 34.02,35.02 c -4.41,9.12 -9.26,18.12 -14.73,26.87 -5.41,8.73 -11.28,17.08 -17.52,25.05 l -46.47,-14.95"
         style="fill:#ffffff;fill-opacity:1;fill-rule:nonzero;stroke:none"
         id="path392" />
      <path
         d="m 6424.93,5169.96 c 0,-24.55 -22.43,-44.42 -50.12,-44.42 H 5028.33 c -27.68,0 -50.11,19.87 -50.11,44.42 v 893.83 c 0,24.53 22.43,44.41 50.11,44.41 h 1346.48 c 27.69,0 50.12,-19.88 50.12,-44.41 z m 110.63,1086.01 H 4867.59 c -34.29,0 -62.06,-25.86 -62.06,-57.77 V 5035.54 c 0,-31.9 27.77,-57.78 62.06,-57.78 h 1667.97 c 34.24,0 62.05,25.88 62.05,57.78 V 6198.2 c 0,31.91 -27.81,57.77 -62.05,57.77"
         style="fill:#ffffff;fill-opacity:1;fill-rule:nonzero;stroke:none"
         id="path394" />
      <path
         d="m 5841.21,4840.89 h -279.3 c -10.47,0 -18.96,8.85 -18.96,19.77 0,10.92 8.49,19.77 18.96,19.77 h 279.3 c 10.46,0 18.97,-8.85 18.97,-19.77 0,-10.92 -8.51,-19.77 -18.97,-19.77 z m -1153.57,89.28 v -77.15 c 0,-42.27 31.45,-76.54 70.23,-76.54 h 1887.41 c 38.78,0 70.24,34.27 70.24,76.54 v 77.15 H 4687.64"
         style="fill:#ffffff;fill-opacity:1;fill-rule:nonzero;stroke:none"
         id="path396" />
      <path
         d="m 8646.84,5859.94 v -332.22 c 0,-23.42 19.61,-42.43 43.79,-42.43 h 618.3 c 24.18,0 43.78,19.01 43.78,42.43 v 331.9 l -353.03,-189.68 -352.84,190"
         style="fill:#ffffff;fill-opacity:1;fill-rule:nonzero;stroke:none"
         id="path398" />
      <path
         d="m 9308.93,5924.91 h -618.3 c -24.18,0 -43.79,-19.62 -43.79,-43.79 v -7.33 l 352.94,-174.57 352.93,174.57 v 7.33 c 0,24.17 -19.6,43.79 -43.78,43.79"
         style="fill:#ffffff;fill-opacity:1;fill-rule:nonzero;stroke:none"
         id="path400" />
      <path
         d="m 8038.55,2208.14 23.69,-14.12 c 19.39,-11.54 47.95,0.69 63.83,27.37 15.87,26.63 13.02,57.59 -6.37,69.13 l -24.76,14.74 c -7.5,-21.74 -16.34,-40.3 -25.65,-55.97 -10.04,-16.84 -20.63,-30.33 -30.74,-41.15"
         style="fill:#ffffff;fill-opacity:1;fill-rule:nonzero;stroke:none"
         id="path402" />
      <path
         d="m 7678.52,2487.9 c -62.11,-104.27 -196.96,-138.45 -301.23,-76.39 -104.26,62.12 -138.43,196.97 -76.35,301.24 62.08,104.26 196.94,138.46 301.21,76.35 104.26,-62.08 138.45,-196.94 76.37,-301.2 z m -457.55,272.45 c -88.39,-148.41 -39.73,-340.39 108.71,-428.78 131.95,-78.6 298.25,-48.77 395.67,63.09 l 277.73,-165.38 c 19.29,20.1 41.12,51.04 56.63,96.95 l -276.9,164.9 c 51.94,138.94 -1.09,299.38 -133.04,377.95 -148.43,88.38 -340.42,39.72 -428.8,-108.73"
         style="fill:#ffffff;fill-opacity:1;fill-rule:nonzero;stroke:none"
         id="path404" />
      <path
         d="m 4952.33,8589.79 h -960.24 v 57.7 h 960.24 v -57.7"
         style="fill:#ffffff;fill-opacity:1;fill-rule:nonzero;stroke:none"
         id="path406" />
      <path
         d="m 4952.33,8478.42 h -960.24 v 57.73 h 960.24 v -57.73"
         style="fill:#ffffff;fill-opacity:1;fill-rule:nonzero;stroke:none"
         id="path408" />
      <path
         d="m 4952.33,8367.08 h -960.24 v 57.73 h 960.24 v -57.73"
         style="fill:#ffffff;fill-opacity:1;fill-rule:nonzero;stroke:none"
         id="path410" />
      <path
         d="m 4952.33,8255.74 h -960.24 v 57.75 h 960.24 v -57.75"
         style="fill:#ffffff;fill-opacity:1;fill-rule:nonzero;stroke:none"
         id="path412" />
      <path
         d="m 4952.33,8144.41 h -960.24 v 57.72 h 960.24 v -57.72"
         style="fill:#ffffff;fill-opacity:1;fill-rule:nonzero;stroke:none"
         id="path414" />
      <path
         d="m 4469.58,8033.06 h -477.49 v 57.74 h 477.49 v -57.74"
         style="fill:#ffffff;fill-opacity:1;fill-rule:nonzero;stroke:none"
         id="path416" />
      <path
         d="m 4688.49,2642.38 c 0,76.51 62.22,138.69 138.73,138.69 76.44,0 138.67,-62.18 138.67,-138.69 v -64.86 h -277.4 z m 406,-64.86 h -20.29 v 64.86 c 0,136.19 -110.83,247.02 -246.98,247.02 -136.22,0 -247.02,-110.83 -247.02,-247.02 v -64.86 h -20.29 c -41.52,0 -75.2,-33.67 -75.2,-75.2 v -356.78 c 0,-41.53 33.68,-75.21 75.2,-75.21 h 534.58 c 41.52,0 75.16,33.68 75.16,75.21 v 356.78 c 0,41.53 -33.64,75.2 -75.16,75.2"
         style="fill:#ffffff;fill-opacity:1;fill-rule:nonzero;stroke:none"
         id="path418" />
      <path
         d="m 3563.09,2106.79 73.29,-148.51 163.9,-23.82 -118.61,-115.61 28.01,-163.24 -146.59,77.08 -146.63,-77.08 28,163.24 -118.58,115.61 163.91,23.82 73.3,148.51"
         style="fill:#ffffff;fill-opacity:1;fill-rule:nonzero;stroke:none"
         id="path420" />
      <path
         d="m 2020.35,7003.13 c -10.46,-11.25 -28.04,-11.87 -39.29,-1.42 -11.24,10.46 -11.88,28.05 -1.42,39.3 10.46,11.23 28.05,11.87 39.28,1.41 11.25,-10.46 11.9,-28.04 1.43,-39.29 z m 203.77,-23.62 -42.07,0.53 c -24.59,33.95 -51.12,61.59 -86.89,84.93 -108.63,70.88 -189.13,53.35 -189.13,53.35 l -32.55,20.7 23.72,-30.19 c 0,0 -11.67,-81.57 66.9,-184.77 25.84,-33.95 55.25,-58.42 90.87,-80.44 l 3.58,-42.13 c 0,0 17.09,-58.26 100.17,-113.49 0,0 -19.53,64.72 1.16,100.76 8.9,-4.28 18.07,-8.65 27.58,-13.21 0,0 15.67,-0.88 44.77,30.39 29.06,31.25 27.21,46.99 27.21,46.99 -5.23,9.14 -10.27,17.97 -15.16,26.51 34.48,23.13 100.29,8.38 100.29,8.38 -61.1,78.88 -120.45,91.69 -120.45,91.69"
         style="fill:#ffffff;fill-opacity:1;fill-rule:nonzero;stroke:none"
         id="path422" />
      <path
         d="m 2556.02,3589.24 c -48.03,-0.62 -86.39,-40.02 -85.78,-88.05 0.61,-47.95 39.96,-86.4 87.99,-85.77 48.02,0.61 86.42,40.03 85.81,87.99 -0.61,48.01 -39.98,86.43 -88.02,85.83"
         style="fill:#ffffff;fill-opacity:1;fill-rule:nonzero;stroke:none"
         id="path424" />
      <path
         d="m 2552.3,3790.65 c -96.62,-1.22 -182.42,-51.04 -238.42,-128.02 l 90.07,-77.99 c 35.36,48.16 89.29,79.32 149.95,80.11 62.94,0.77 119.43,-31.34 155.91,-81.69 l 88.97,79 c -57.88,79.36 -147.09,129.86 -246.48,128.59"
         style="fill:#ffffff;fill-opacity:1;fill-rule:nonzero;stroke:none"
         id="path426" />
      <path
         d="m 2549.76,3991.38 c -153.77,-1.96 -290.13,-82.13 -378.3,-205.5 l 90.12,-78 c 67.5,94.6 171.95,156.08 289.77,157.59 120.9,1.52 229.31,-60.42 299.06,-157.48 l 88.97,79.06 c -91.14,125.99 -232.3,206.32 -389.62,204.33"
         style="fill:#ffffff;fill-opacity:1;fill-rule:nonzero;stroke:none"
         id="path428" />
    </g>
  </g>
</svg>
